<svg id="visual" viewBox="0 0 900 600" width="900" height="600" xmlns="http://www.w3.org/2000/svg" xmlns:xlink="http://www.w3.org/1999/xlink" version="1.1"><path d="M0 559L30 545.2C60 531.3 120 503.7 180 498.8C240 494 300 512 360 517.7C420 523.3 480 516.7 540 506.2C600 495.7 660 481.3 720 471C780 460.7 840 454.3 870 451.2L900 448L900 601L870 601C840 601 780 601 720 601C660 601 600 601 540 601C480 601 420 601 360 601C300 601 240 601 180 601C120 601 60 601 30 601L0 601Z" fill="#0F1B04" stroke-linecap="round" stroke-linejoin="miter"></path></svg>