<svg id="visual" viewBox="0 0 900 600" width="900" height="600" xmlns="http://www.w3.org/2000/svg" xmlns:xlink="http://www.w3.org/1999/xlink" version="1.1"><path d="M0 120L30 119.8C60 119.7 120 119.3 180 119.3C240 119.3 300 119.7 360 108.8C420 98 480 76 540 62.5C600 49 660 44 720 53.3C780 62.7 840 86.3 870 98.2L900 110L900 0L870 0C840 0 780 0 720 0C660 0 600 0 540 0C480 0 420 0 360 0C300 0 240 0 180 0C120 0 60 0 30 0L0 0Z" fill="#0F1B04" stroke-linecap="round" stroke-linejoin="miter"></path></svg>