<?xml version="1.0" encoding="UTF-8"?>
<svg id="Layer_1" data-name="Layer 1" xmlns="http://www.w3.org/2000/svg" xmlns:xlink="http://www.w3.org/1999/xlink" viewBox="0 0 1080 1350">
  <defs>
    <style>
      .cls-1 {
        fill: #c0d6c1;
      }

      .cls-2 {
        fill: #91ae92;
      }

      .cls-3 {
        fill: #3f7a5c;
      }

      .cls-4 {
        clip-path: url(#clippath);
      }

      .cls-5 {
        fill: none;
      }

      .cls-6 {
        fill: #2c5642;
      }

      .cls-7 {
        fill: #779475;
      }
    </style>
    <clipPath id="clippath">
      <rect class="cls-5" width="1080" height="1350"/>
    </clipPath>
  </defs>
  <g class="cls-4">
    <rect class="cls-3" width="1080" height="1350"/>
    <path class="cls-6" d="m-68,1452c155.46-251.31,88.54-453.39,188-497,95.97-42.08,205.58,125.35,282,83,95.15-52.73-42.86-330.02,80-445,87.03-81.44,194.23,22.17,385-51,191.12-73.3,227.83-232.63,328-217,92.39,14.42,139.38,162.15,174,271,46.61,146.54,166.96,524.91-51,830-97.05,135.85-220.17,199.76-288,234-477.44,240.99-1132.27,46.53-1147-117-2.28-25.31,12.39-31.82,49-91Z"/>
    <path class="cls-7" d="m223,1597c-67.49-71.34-142.32-225.09-94-351,7.11-18.52,33.21-86.53,94-108,102.35-36.15,188.37,100.11,254,71,100.28-44.48-25.58-395.82,105-479,74.77-47.63,149.63,46.18,262-6,114.16-53.01,108.23-182.96,206-208,85.99-22.03,174.79,56.92,194,74,178.67,158.84,205.59,560.75,25,822-246.36,356.39-843.21,399.37-1046,185Z"/>
    <path class="cls-2" d="m1212,727c-9.17-11.49-92.03-115.35-165-97-83.21,20.93-63.06,178.03-166,226-98.57,45.93-205.39-56.95-250-12-41.08,41.39,47.86,130.25,17,254-22.12,88.71-98.88,167.56-183,191-116.77,32.54-213.41-51.24-231-26-18.88,27.09,71.85,153.24,208,226,220.02,117.58,451.99,38.72,482,28,53.94-19.27,176.79-65,268-188,133.91-180.58,141.65-449.53,20-602Z"/>
    <path class="cls-1" d="m1110,893c-36.32-76.83-61.08-90.64-77-89-50.51,5.21-40.72,169.02-123,200-69.1,26.02-143.78-63.98-177-37-37.74,30.66,55.29,149.6,6,228-39.1,62.19-129.03,37.26-146,83-21.68,58.43,90.91,191.31,223,213,179.83,29.53,406.09-145.31,408-350,1.2-127.87-85.6-220.14-114-248Z"/>
  </g>
</svg>